<mxfile host="Electron" modified="2025-04-11T02:33:03.067Z" agent="Mozilla/5.0 (X11; Linux x86_64) AppleWebKit/537.36 (KHTML, like Gecko) draw.io/24.5.3 Chrome/124.0.6367.207 Electron/30.0.6 Safari/537.36" etag="UKp8qBRlkgkwrEeWADp3" version="24.5.3" type="device">
  <diagram name="Page-1" id="m-adBCJk26NGs1K-wwEV">
    <mxGraphModel dx="2899" dy="1223" grid="1" gridSize="10" guides="1" tooltips="1" connect="1" arrows="1" fold="1" page="1" pageScale="1" pageWidth="850" pageHeight="1100" math="0" shadow="0">
      <root>
        <mxCell id="0" />
        <mxCell id="1" parent="0" />
        <mxCell id="39MNdJSc1lQd8kLLhq9t-3" value="" style="rounded=0;whiteSpace=wrap;html=1;" vertex="1" parent="1">
          <mxGeometry x="40" y="120" width="640" height="330" as="geometry" />
        </mxCell>
        <mxCell id="39MNdJSc1lQd8kLLhq9t-4" value="Image" style="rounded=1;whiteSpace=wrap;html=1;" vertex="1" parent="1">
          <mxGeometry x="380" y="165" width="270" height="240" as="geometry" />
        </mxCell>
        <mxCell id="39MNdJSc1lQd8kLLhq9t-5" value="Text" style="rounded=1;whiteSpace=wrap;html=1;" vertex="1" parent="1">
          <mxGeometry x="70" y="165" width="280" height="240" as="geometry" />
        </mxCell>
        <mxCell id="39MNdJSc1lQd8kLLhq9t-6" value="" style="rounded=0;whiteSpace=wrap;html=1;" vertex="1" parent="1">
          <mxGeometry x="-20" y="620" width="740" height="150" as="geometry" />
        </mxCell>
        <mxCell id="39MNdJSc1lQd8kLLhq9t-13" style="edgeStyle=orthogonalEdgeStyle;rounded=0;orthogonalLoop=1;jettySize=auto;html=1;" edge="1" parent="1" source="39MNdJSc1lQd8kLLhq9t-34" target="39MNdJSc1lQd8kLLhq9t-12">
          <mxGeometry relative="1" as="geometry" />
        </mxCell>
        <mxCell id="39MNdJSc1lQd8kLLhq9t-7" value="Encrypted Tool&lt;div&gt;Key (Static)&lt;/div&gt;" style="shape=parallelogram;perimeter=parallelogramPerimeter;whiteSpace=wrap;html=1;fixedSize=1;" vertex="1" parent="1">
          <mxGeometry y="660" width="120" height="60" as="geometry" />
        </mxCell>
        <mxCell id="39MNdJSc1lQd8kLLhq9t-14" style="edgeStyle=orthogonalEdgeStyle;rounded=0;orthogonalLoop=1;jettySize=auto;html=1;exitX=1;exitY=0.5;exitDx=0;exitDy=0;" edge="1" parent="1" source="39MNdJSc1lQd8kLLhq9t-11" target="39MNdJSc1lQd8kLLhq9t-12">
          <mxGeometry relative="1" as="geometry">
            <Array as="points">
              <mxPoint x="300" y="743" />
              <mxPoint x="300" y="690" />
            </Array>
          </mxGeometry>
        </mxCell>
        <mxCell id="39MNdJSc1lQd8kLLhq9t-11" value="Create&lt;div&gt;IV&lt;/div&gt;" style="rounded=0;whiteSpace=wrap;html=1;" vertex="1" parent="1">
          <mxGeometry x="220" y="720" width="50" height="45" as="geometry" />
        </mxCell>
        <mxCell id="39MNdJSc1lQd8kLLhq9t-23" style="edgeStyle=orthogonalEdgeStyle;rounded=0;orthogonalLoop=1;jettySize=auto;html=1;" edge="1" parent="1" source="39MNdJSc1lQd8kLLhq9t-12" target="39MNdJSc1lQd8kLLhq9t-21">
          <mxGeometry relative="1" as="geometry" />
        </mxCell>
        <mxCell id="39MNdJSc1lQd8kLLhq9t-12" value="AES-GCM" style="rounded=0;whiteSpace=wrap;html=1;" vertex="1" parent="1">
          <mxGeometry x="320" y="667.5" width="50" height="45" as="geometry" />
        </mxCell>
        <mxCell id="39MNdJSc1lQd8kLLhq9t-25" style="edgeStyle=orthogonalEdgeStyle;rounded=0;orthogonalLoop=1;jettySize=auto;html=1;" edge="1" parent="1" source="39MNdJSc1lQd8kLLhq9t-15" target="39MNdJSc1lQd8kLLhq9t-24">
          <mxGeometry relative="1" as="geometry" />
        </mxCell>
        <mxCell id="39MNdJSc1lQd8kLLhq9t-55" style="edgeStyle=orthogonalEdgeStyle;rounded=0;orthogonalLoop=1;jettySize=auto;html=1;" edge="1" parent="1" source="39MNdJSc1lQd8kLLhq9t-56" target="39MNdJSc1lQd8kLLhq9t-48">
          <mxGeometry relative="1" as="geometry" />
        </mxCell>
        <mxCell id="39MNdJSc1lQd8kLLhq9t-15" value="Image" style="shape=note;whiteSpace=wrap;html=1;backgroundOutline=1;darkOpacity=0.05;size=14;" vertex="1" parent="1">
          <mxGeometry x="600" y="500" width="80" height="100" as="geometry" />
        </mxCell>
        <mxCell id="39MNdJSc1lQd8kLLhq9t-19" style="edgeStyle=orthogonalEdgeStyle;rounded=0;orthogonalLoop=1;jettySize=auto;html=1;" edge="1" parent="1" source="39MNdJSc1lQd8kLLhq9t-18" target="39MNdJSc1lQd8kLLhq9t-12">
          <mxGeometry relative="1" as="geometry" />
        </mxCell>
        <mxCell id="39MNdJSc1lQd8kLLhq9t-52" style="edgeStyle=orthogonalEdgeStyle;rounded=0;orthogonalLoop=1;jettySize=auto;html=1;" edge="1" parent="1" source="39MNdJSc1lQd8kLLhq9t-18" target="39MNdJSc1lQd8kLLhq9t-48">
          <mxGeometry relative="1" as="geometry">
            <Array as="points">
              <mxPoint x="320" y="550" />
            </Array>
          </mxGeometry>
        </mxCell>
        <mxCell id="39MNdJSc1lQd8kLLhq9t-18" value="Plaintext" style="rounded=0;whiteSpace=wrap;html=1;" vertex="1" parent="1">
          <mxGeometry x="280" y="580" width="80" height="20" as="geometry" />
        </mxCell>
        <mxCell id="39MNdJSc1lQd8kLLhq9t-22" value="" style="group" vertex="1" connectable="0" parent="1">
          <mxGeometry x="410" y="680" width="100" height="20" as="geometry" />
        </mxCell>
        <mxCell id="39MNdJSc1lQd8kLLhq9t-20" value="Ciphertext" style="rounded=0;whiteSpace=wrap;html=1;" vertex="1" parent="39MNdJSc1lQd8kLLhq9t-22">
          <mxGeometry x="20" width="80" height="20" as="geometry" />
        </mxCell>
        <mxCell id="39MNdJSc1lQd8kLLhq9t-21" value="IV" style="rounded=0;whiteSpace=wrap;html=1;" vertex="1" parent="39MNdJSc1lQd8kLLhq9t-22">
          <mxGeometry width="20" height="20" as="geometry" />
        </mxCell>
        <mxCell id="39MNdJSc1lQd8kLLhq9t-28" style="edgeStyle=orthogonalEdgeStyle;rounded=0;orthogonalLoop=1;jettySize=auto;html=1;" edge="1" parent="1" source="39MNdJSc1lQd8kLLhq9t-24" target="39MNdJSc1lQd8kLLhq9t-27">
          <mxGeometry relative="1" as="geometry" />
        </mxCell>
        <mxCell id="39MNdJSc1lQd8kLLhq9t-29" style="edgeStyle=orthogonalEdgeStyle;rounded=0;orthogonalLoop=1;jettySize=auto;html=1;" edge="1" parent="1" source="39MNdJSc1lQd8kLLhq9t-24" target="39MNdJSc1lQd8kLLhq9t-58">
          <mxGeometry relative="1" as="geometry">
            <mxPoint x="555" y="900" as="targetPoint" />
            <Array as="points" />
          </mxGeometry>
        </mxCell>
        <mxCell id="39MNdJSc1lQd8kLLhq9t-24" value="enscribe" style="shape=process;whiteSpace=wrap;html=1;backgroundOutline=1;" vertex="1" parent="1">
          <mxGeometry x="580" y="660" width="120" height="60" as="geometry" />
        </mxCell>
        <mxCell id="39MNdJSc1lQd8kLLhq9t-26" style="edgeStyle=orthogonalEdgeStyle;rounded=0;orthogonalLoop=1;jettySize=auto;html=1;" edge="1" parent="1" source="39MNdJSc1lQd8kLLhq9t-20" target="39MNdJSc1lQd8kLLhq9t-24">
          <mxGeometry relative="1" as="geometry" />
        </mxCell>
        <mxCell id="39MNdJSc1lQd8kLLhq9t-27" value="Stenograph" style="shape=note;whiteSpace=wrap;html=1;backgroundOutline=1;darkOpacity=0.05;size=14;" vertex="1" parent="1">
          <mxGeometry x="770" y="640" width="80" height="100" as="geometry" />
        </mxCell>
        <mxCell id="39MNdJSc1lQd8kLLhq9t-41" style="edgeStyle=orthogonalEdgeStyle;rounded=0;orthogonalLoop=1;jettySize=auto;html=1;" edge="1" parent="1" source="39MNdJSc1lQd8kLLhq9t-33" target="39MNdJSc1lQd8kLLhq9t-37">
          <mxGeometry relative="1" as="geometry" />
        </mxCell>
        <mxCell id="39MNdJSc1lQd8kLLhq9t-33" value="PASSWORD" style="rounded=0;whiteSpace=wrap;html=1;" vertex="1" parent="1">
          <mxGeometry x="170" y="580" width="80" height="20" as="geometry" />
        </mxCell>
        <mxCell id="39MNdJSc1lQd8kLLhq9t-35" value="" style="edgeStyle=orthogonalEdgeStyle;rounded=0;orthogonalLoop=1;jettySize=auto;html=1;" edge="1" parent="1" source="39MNdJSc1lQd8kLLhq9t-7" target="39MNdJSc1lQd8kLLhq9t-34">
          <mxGeometry relative="1" as="geometry">
            <mxPoint x="110" y="690" as="sourcePoint" />
            <mxPoint x="320" y="690" as="targetPoint" />
          </mxGeometry>
        </mxCell>
        <mxCell id="39MNdJSc1lQd8kLLhq9t-34" value="decrypt with hash(pw)&lt;span style=&quot;color: rgba(0, 0, 0, 0); font-family: monospace; font-size: 0px; text-align: start; text-wrap: nowrap;&quot;&gt;%3CmxGraphModel%3E%3Croot%3E%3CmxCell%20id%3D%220%22%2F%3E%3CmxCell%20id%3D%221%22%20parent%3D%220%22%2F%3E%3CmxCell%20id%3D%222%22%20value%3D%22Plaintext%22%20style%3D%22rounded%3D0%3BwhiteSpace%3Dwrap%3Bhtml%3D1%3B%22%20vertex%3D%221%22%20parent%3D%221%22%3E%3CmxGeometry%20x%3D%22280%22%20y%3D%22580%22%20width%3D%2280%22%20height%3D%2220%22%20as%3D%22geometry%22%2F%3E%3C%2FmxCell%3E%3C%2Froot%3E%3C%2FmxGraphModel%3E hash(&lt;/span&gt;" style="shape=process;whiteSpace=wrap;html=1;backgroundOutline=1;" vertex="1" parent="1">
          <mxGeometry x="150" y="670" width="120" height="40" as="geometry" />
        </mxCell>
        <mxCell id="39MNdJSc1lQd8kLLhq9t-43" style="edgeStyle=orthogonalEdgeStyle;rounded=0;orthogonalLoop=1;jettySize=auto;html=1;" edge="1" parent="1" source="39MNdJSc1lQd8kLLhq9t-37" target="39MNdJSc1lQd8kLLhq9t-34">
          <mxGeometry relative="1" as="geometry" />
        </mxCell>
        <mxCell id="39MNdJSc1lQd8kLLhq9t-37" value="verify with hash(hash(pw))" style="shape=process;whiteSpace=wrap;html=1;backgroundOutline=1;" vertex="1" parent="1">
          <mxGeometry x="150" y="610" width="120" height="40" as="geometry" />
        </mxCell>
        <mxCell id="39MNdJSc1lQd8kLLhq9t-44" value="" style="edgeStyle=orthogonalEdgeStyle;rounded=0;orthogonalLoop=1;jettySize=auto;html=1;" edge="1" parent="1" source="39MNdJSc1lQd8kLLhq9t-39" target="39MNdJSc1lQd8kLLhq9t-37">
          <mxGeometry relative="1" as="geometry">
            <Array as="points">
              <mxPoint x="140" y="640" />
              <mxPoint x="140" y="640" />
            </Array>
          </mxGeometry>
        </mxCell>
        <mxCell id="39MNdJSc1lQd8kLLhq9t-39" value="hash(hash(pw))" style="shape=parallelogram;perimeter=parallelogramPerimeter;whiteSpace=wrap;html=1;fixedSize=1;" vertex="1" parent="1">
          <mxGeometry x="10" y="630" width="120" height="20" as="geometry" />
        </mxCell>
        <mxCell id="39MNdJSc1lQd8kLLhq9t-46" style="edgeStyle=orthogonalEdgeStyle;rounded=0;orthogonalLoop=1;jettySize=auto;html=1;" edge="1" parent="1" source="39MNdJSc1lQd8kLLhq9t-45" target="39MNdJSc1lQd8kLLhq9t-18">
          <mxGeometry relative="1" as="geometry">
            <Array as="points">
              <mxPoint x="390" y="590" />
            </Array>
          </mxGeometry>
        </mxCell>
        <mxCell id="39MNdJSc1lQd8kLLhq9t-47" value="append" style="edgeLabel;html=1;align=center;verticalAlign=middle;resizable=0;points=[];" vertex="1" connectable="0" parent="39MNdJSc1lQd8kLLhq9t-46">
          <mxGeometry x="0.4625" y="1" relative="1" as="geometry">
            <mxPoint as="offset" />
          </mxGeometry>
        </mxCell>
        <mxCell id="39MNdJSc1lQd8kLLhq9t-45" value="Create&lt;div&gt;Positional&lt;/div&gt;&lt;div&gt;Seed&lt;/div&gt;" style="rounded=0;whiteSpace=wrap;html=1;" vertex="1" parent="1">
          <mxGeometry x="340" y="720" width="60" height="45" as="geometry" />
        </mxCell>
        <mxCell id="39MNdJSc1lQd8kLLhq9t-50" style="edgeStyle=orthogonalEdgeStyle;rounded=0;orthogonalLoop=1;jettySize=auto;html=1;" edge="1" parent="1" source="39MNdJSc1lQd8kLLhq9t-48" target="39MNdJSc1lQd8kLLhq9t-18">
          <mxGeometry relative="1" as="geometry" />
        </mxCell>
        <mxCell id="39MNdJSc1lQd8kLLhq9t-48" value="Determine Length" style="rounded=0;whiteSpace=wrap;html=1;" vertex="1" parent="1">
          <mxGeometry x="365" y="528" width="60" height="45" as="geometry" />
        </mxCell>
        <mxCell id="39MNdJSc1lQd8kLLhq9t-57" value="" style="edgeStyle=orthogonalEdgeStyle;rounded=0;orthogonalLoop=1;jettySize=auto;html=1;" edge="1" parent="1" source="39MNdJSc1lQd8kLLhq9t-15" target="39MNdJSc1lQd8kLLhq9t-56">
          <mxGeometry relative="1" as="geometry">
            <mxPoint x="600" y="550" as="sourcePoint" />
            <mxPoint x="425" y="550" as="targetPoint" />
          </mxGeometry>
        </mxCell>
        <mxCell id="39MNdJSc1lQd8kLLhq9t-56" value="Is Image large enough to secure?" style="rhombus;whiteSpace=wrap;html=1;fillColor=#fff2cc;strokeColor=#d6b656;" vertex="1" parent="1">
          <mxGeometry x="475" y="510" width="80" height="80" as="geometry" />
        </mxCell>
        <mxCell id="39MNdJSc1lQd8kLLhq9t-58" value="enscribe" style="swimlane;whiteSpace=wrap;html=1;" vertex="1" parent="1">
          <mxGeometry x="405" y="900" width="470" height="120" as="geometry" />
        </mxCell>
        <mxCell id="39MNdJSc1lQd8kLLhq9t-32" value="Insert 2 bits of data at the end of a pixel color in locations defined by the RNG(seed) (within file size" style="shape=process;whiteSpace=wrap;html=1;backgroundOutline=1;" vertex="1" parent="39MNdJSc1lQd8kLLhq9t-58">
          <mxGeometry x="210" y="40" width="240" height="60" as="geometry" />
        </mxCell>
        <mxCell id="39MNdJSc1lQd8kLLhq9t-53" value="Include IV backwards at the end of the file" style="shape=process;whiteSpace=wrap;html=1;backgroundOutline=1;" vertex="1" parent="39MNdJSc1lQd8kLLhq9t-58">
          <mxGeometry x="30" y="40" width="120" height="60" as="geometry" />
        </mxCell>
        <mxCell id="39MNdJSc1lQd8kLLhq9t-54" style="edgeStyle=orthogonalEdgeStyle;rounded=0;orthogonalLoop=1;jettySize=auto;html=1;" edge="1" parent="39MNdJSc1lQd8kLLhq9t-58" source="39MNdJSc1lQd8kLLhq9t-53" target="39MNdJSc1lQd8kLLhq9t-32">
          <mxGeometry relative="1" as="geometry" />
        </mxCell>
      </root>
    </mxGraphModel>
  </diagram>
</mxfile>
